# xmcd
#
# Track frame offsets: 
#        150
#        11642
#        25572
#        37605
#        50737
#        61900
#        74362
#        88757
#        101947
#        115987
#        130785
#        144627
#        157037
#        170735
#        183520
#        197987
#        209885
#        223350
#        233785
#        246490
#        259262
#        273500
#        293097
#        304102
#        318887
#
# Disc length: 4431 seconds
#
# Revision: 6
# Processed by: cddbd v1.5.2PL0 Copyright (c) Steve Scherf et al.
# Submitted via: ExactAudioCopy v1.0b1
#
DISCID=89114d19
DTITLE=Various Artist - Café de Paris: 25 Grands succès français
DYEAR=2000
DGENRE=Chanson
TTITLE0=Charles Trenet - Boum!
TTITLE1=Edith Piaf - La vie en rose
TTITLE2=Jean Sablon - Le fiacre
TTITLE3=Tino Rossi - J'attendrai
TTITLE4=Fernandel - Ne me dis plus tu
TTITLE5=Fréhel - La Java bleue
TTITLE6=Josephine Baker - J'ai deux amours
TTITLE7=Maurice Chevalier - Ma pomme
TTITLE8=Mistinguett - Mon homme
TTITLE9=Jean Gabin - Quand on se promène
TTITLE10=Jean Sablon - Vous qui passez sans me voir
TTITLE11=Charles Trenet - Je chante
TTITLE12=Jean Tranchant - Les prénoms effacés
TTITLE13=Arletty - La Villette
TTITLE14=Lys Gauty - Le chaland qui passe
TTITLE15=Josephine Baker - La petite Tonkinoise
TTITLE16=Lucienne Boyer - Parlez-moi d'amour
TTITLE17=Maurice Chevalier - Paris, je t'aime d'amour
TTITLE18=Damia - Le grand frisé
TTITLE19=Tony Murena - Pepee
TTITLE20=Eva Busch - Il ne fait pas briser un rêve
TTITLE21=Edith Piaf - C'etait une histoire d'amour
TTITLE22=Fernandel - Elle a tout ça
TTITLE23=Jean Sablon - Si tu m'aimes
TTITLE24=Georges Ulmer - Pigalle
EXTD=YEAR: 2000
EXTT0=
EXTT1=
EXTT2=
EXTT3=
EXTT4=
EXTT5=
EXTT6=
EXTT7=
EXTT8=
EXTT9=
EXTT10=
EXTT11=
EXTT12=
EXTT13=
EXTT14=
EXTT15=
EXTT16=
EXTT17=
EXTT18=
EXTT19=
EXTT20=
EXTT21=
EXTT22=
EXTT23=
EXTT24=
PLAYORDER=
